<!DOCTYPE svg PUBLIC "-//W3C//DTD SVG 1.1//EN" "http://www.w3.org/Graphics/SVG/1.1/DTD/svg11.dtd">
<!-- Uploaded to: SVG Repo, www.svgrepo.com, Transformed by: SVG Repo Mixer Tools -->
<svg width="800px" height="800px" viewBox="0 0 24 24" fill="none" xmlns="http://www.w3.org/2000/svg">
<g id="SVGRepo_bgCarrier" stroke-width="0"/>
<g id="SVGRepo_tracerCarrier" stroke-linecap="round" stroke-linejoin="round"/>
<g id="SVGRepo_iconCarrier">
<path d="M15 20C11.8 20 11 17.3333 11 16H3V18C3 19.1046 3.89543 20 5 20H15ZM15 20C16.6569 20 18 18.6569 18 17V10M18 4H7C5.89543 4 5 4.89543 5 6V16M18 4H19C20.1046 4 21 4.89543 21 6V8C21 9.10457 20.1046 10 19 10H18M18 4V10M14 8H9M11 12H9" stroke="#9c9c9c" stroke-linecap="round" stroke-linejoin="round" stroke-width="2"/>
</g>
</svg>