<svg width="97" height="20" viewBox="0 0 97 20" fill="none" xmlns="http://www.w3.org/2000/svg">
<path d="M28.2588 16.113H30.7813C31.5756 16.113 32.3238 15.9814 33.0274 15.7183C33.7295 15.4552 34.3409 15.0647 34.8631 14.5441C35.3851 14.0249 35.7969 13.3867 36.0984 12.6282C36.4 11.871 36.5507 10.995 36.5507 9.9985C36.5507 9.12377 36.4083 8.32186 36.125 7.59273C35.8416 6.86359 35.4438 6.23659 34.9328 5.71036C34.4219 5.18413 33.8147 4.77409 33.1083 4.483C32.402 4.1919 31.63 4.04495 30.7939 4.04495H28.2602V16.1115L28.2588 16.113ZM25.8857 2.99951H30.5887C32.0363 2.99951 33.2815 3.13387 34.3242 3.40537C35.367 3.67548 36.2366 4.10933 36.9318 4.70691C37.7261 5.38986 38.3236 6.17223 38.7256 7.05391C39.1262 7.93559 39.3272 8.89986 39.3272 9.94532C39.3272 10.9907 39.1471 11.8766 38.7898 12.7513C38.431 13.626 37.9062 14.3902 37.2152 15.0395C36.5228 15.6903 35.6685 16.204 34.6509 16.5818C33.6318 16.9583 32.4662 17.1472 31.154 17.1472H25.8857V2.99951Z" fill="#CD9B4B"/>
<path d="M44.4551 9.78577H45.8273C46.3591 9.78577 46.8504 9.71436 47.3014 9.57163C47.7525 9.43027 48.1419 9.22877 48.4725 8.96845C48.8021 8.70954 49.0589 8.39323 49.2445 8.02377C49.4288 7.65432 49.5208 7.23863 49.5208 6.77541C49.5208 6.34854 49.4483 5.95668 49.3034 5.60123C49.158 5.24573 48.9516 4.94204 48.6862 4.68873C48.4195 4.43682 48.1043 4.23948 47.7384 4.09673C47.3725 3.95398 46.9736 3.88261 46.542 3.88261H44.4551V9.78295V9.78577ZM42.082 2.99951H46.9777C47.8222 2.99951 48.5635 3.09048 49.2015 3.27102C49.8391 3.45296 50.3725 3.70627 50.7968 4.03375C51.2225 4.36124 51.5436 4.75032 51.76 5.20236C51.9765 5.65441 52.0851 6.14704 52.0851 6.68023C52.0851 7.12109 52.0014 7.53395 51.8356 7.91882C51.6694 8.30227 51.4349 8.64936 51.1333 8.95863C50.8317 9.26795 50.4676 9.53386 50.0415 9.75918C49.6159 9.98309 49.1481 10.1594 48.6373 10.2868L53.7787 17.1472H51.0214L46.1163 10.4995H44.4551V17.1472H42.082V2.99951Z" fill="#CD9B4B"/>
<path d="M55.7093 2.99951H58.0825V12.1859C58.0825 12.7919 58.1858 13.3587 58.3909 13.8877C58.5961 14.4181 58.8922 14.8814 59.2744 15.2803C59.6584 15.6791 60.1203 15.9926 60.6637 16.2249C61.2066 16.4559 61.8111 16.572 62.4782 16.572C63.1456 16.572 63.7583 16.4559 64.2972 16.2249C64.836 15.994 65.2952 15.6791 65.6747 15.2803C66.0533 14.8814 66.3449 14.4181 66.5473 13.8877C66.7497 13.3573 66.8502 12.7905 66.8502 12.1859V2.99951H67.8931V12.1859C67.8931 12.9123 67.7758 13.5939 67.5413 14.2348C67.3067 14.8744 66.9394 15.4342 66.44 15.9156C65.9401 16.3957 65.2993 16.7763 64.5191 17.0576C63.7388 17.339 62.8019 17.4789 61.7093 17.4789C60.7361 17.4789 59.8762 17.339 59.1281 17.0576C58.3782 16.7763 57.7515 16.3943 57.2434 15.91C56.7367 15.4258 56.3527 14.859 56.0946 14.2082C55.8365 13.5575 55.7065 12.8619 55.7065 12.123V2.99951H55.7093Z" fill="#CD9B4B"/>
<path d="M73.0319 10.127C73.0319 11.1165 73.1813 12.0038 73.4788 12.789C73.7759 13.574 74.1861 14.2402 74.7083 14.7846C75.229 15.329 75.8449 15.7447 76.5554 16.033C77.2645 16.3213 78.0348 16.4655 78.8657 16.4655C79.3625 16.4655 79.8411 16.3689 80.3021 16.1772C80.7626 15.9854 81.191 15.7349 81.5849 15.4256C81.9785 15.1163 82.3317 14.7679 82.6428 14.3802C82.9557 13.9925 83.2111 13.6006 83.4094 13.2018L84.4102 13.8414C84.1185 14.3186 83.7748 14.7749 83.3786 15.2129C82.9806 15.651 82.5214 16.0386 82.0006 16.3759C81.4785 16.7146 80.8898 16.9833 80.2337 17.182C79.5775 17.3807 78.8444 17.4801 78.0366 17.4801C76.8651 17.4801 75.8028 17.2842 74.8495 16.8937C73.8945 16.5033 73.0781 15.9728 72.3966 15.3039C71.7155 14.6363 71.1893 13.8554 70.8166 12.9625C70.444 12.0696 70.2583 11.1249 70.2583 10.1299C70.2583 9.46791 70.3434 8.82273 70.5137 8.19295C70.684 7.56314 70.9298 6.97395 71.2536 6.42255C71.576 5.87114 71.9695 5.36591 72.4346 4.90686C72.8992 4.44783 73.424 4.05317 74.0091 3.72288C74.5941 3.3926 75.2349 3.13649 75.93 2.95455C76.6251 2.77261 77.3664 2.68164 78.1534 2.68164C78.9409 2.68164 79.5984 2.78241 80.2351 2.98534C80.8699 3.18827 81.4482 3.45697 81.9703 3.79006C82.4906 4.12454 82.957 4.51081 83.3646 4.94745C83.7735 5.3855 84.1226 5.84173 84.4129 6.319L83.3813 7.00195C82.7922 5.85714 82.132 5.01882 81.402 4.48842C80.6707 3.9594 79.8302 3.69349 78.8793 3.69349C78.0642 3.69349 77.3007 3.84324 76.5916 4.14134C75.8825 4.44083 75.2639 4.86627 74.735 5.42191C74.2061 5.9775 73.7913 6.65068 73.4897 7.44418C73.1881 8.23773 73.0373 9.132 73.0373 10.127" fill="#CD9B4B"/>
<path d="M87.043 2.99951V17.1472H96.8567V16.2305H89.4176V9.89213H94.3969V8.97404H89.4176V3.91619H96.8567V2.99951H87.043Z" fill="#CD9B4B"/>
<path d="M18.9278 5.23741C18.8845 4.76441 18.7756 4.31234 18.6011 3.88549C18.3722 3.32569 18.0316 2.83026 17.5891 2.4146C17.1452 1.99615 16.5854 1.66167 15.9279 1.41815C15.2663 1.17323 14.4971 1.04868 13.64 1.04868H13.2254C12.861 0.74498 12.466 0.501466 12.0416 0.323727C11.486 0.0914079 10.8955 -0.0163546 10.2883 0.0032386C9.67968 0.0228318 9.04871 0.180977 8.41076 0.474875C7.77005 0.770171 7.13908 1.22921 6.53184 1.8366L6.24569 2.1235C5.68174 2.15569 5.15127 2.27745 4.66828 2.49718C4.10571 2.75468 3.59759 3.14375 3.16066 3.65597C2.78097 4.09962 2.50178 4.66504 2.32868 5.33677C2.1514 6.02254 2.06206 6.85527 2.06206 7.81395V7.83773C1.68655 8.26036 1.3962 8.72223 1.21054 9.22045C0.994168 9.80123 0.910411 10.4366 0.962061 11.1098C1.00673 11.692 1.20775 12.291 1.55812 12.8886C1.91688 13.4988 2.44036 14.151 3.11739 14.8297L3.13274 14.8465C3.16485 15.4119 3.2863 15.9437 3.50546 16.428C3.76231 16.992 4.15038 17.5014 4.66129 17.9408C5.10381 18.3201 5.66774 18.6014 6.33644 18.775C7.02044 18.9527 7.85102 19.0422 8.80722 19.0422H8.82959C9.25113 19.4187 9.71179 19.7098 10.2088 19.896C10.7881 20.1129 11.4218 20.1968 12.0933 20.1465C12.674 20.1017 13.2714 19.9001 13.8675 19.5489C14.4762 19.1892 15.1266 18.6644 15.8037 17.9856L15.8274 17.9618C16.2992 17.9184 16.7501 17.8093 17.1745 17.6343C17.7329 17.4048 18.227 17.0633 18.6416 16.6197C19.0576 16.1746 19.3926 15.6148 19.6355 14.9556C19.8798 14.2923 20.0026 13.5211 20.0026 12.6605V12.2448C22.0044 8.85518 20.233 6.30527 18.925 5.24023L18.9278 5.23741ZM14.9829 1.59449C15.484 1.78202 15.9279 2.06613 16.3006 2.43699C16.6733 2.80787 16.9707 3.26831 17.1843 3.80572C17.1912 3.82392 17.2136 3.89249 17.2136 3.89249C17.4048 4.40891 17.5053 5.00232 17.5053 5.66427C17.5053 6.28004 17.4034 6.85386 17.2024 7.37027C17.0014 7.88809 16.7138 8.34154 16.3495 8.71663C15.9851 9.09168 15.2606 9.49895 14.733 9.63191C13.7712 9.874 12.7228 9.89641 12.3166 9.895L11.9299 9.1085C12.5623 8.48432 13.6176 7.76213 14.2611 6.62295C14.6018 6.01977 14.8126 5.42777 14.8572 4.84554C14.9089 4.17239 14.8251 3.53701 14.6087 2.95622C14.3924 2.37542 14.042 1.8394 13.5674 1.36357C13.552 1.34817 13.5367 1.33558 13.5213 1.32158C14.0336 1.33558 14.525 1.42515 14.9829 1.59589V1.59449ZM10.7741 8.61163L11.7457 10.5934H9.77324L10.7727 8.61163H10.7741ZM7.86637 1.2712C8.35357 1.04868 8.86726 0.935316 9.39214 0.932516C9.91701 0.931116 10.4516 1.04588 10.9821 1.274C11.4023 1.46013 12.0542 1.89258 12.5204 2.36002C12.9546 2.79527 13.2868 3.27251 13.5087 3.78053C13.7321 4.28995 13.8479 4.81336 13.855 5.33677C13.8619 5.86159 13.8005 6.40041 13.5506 6.88463C13.1249 7.70895 12.2622 8.42132 11.8043 8.85377L11.1664 7.55641V7.43186C11.1664 6.57254 11.0421 5.80004 10.7979 5.13668C10.555 4.47749 10.2199 3.91768 9.80394 3.47263C9.38793 3.02899 8.8938 2.68751 8.33682 2.45799C7.80773 2.23966 7.2354 2.1277 6.63517 2.11511C7.00785 1.76103 7.41965 1.47553 7.86497 1.2712H7.86637ZM2.64417 6.02536C2.85076 5.52154 3.1467 5.08068 3.52081 4.71541C3.89492 4.35013 4.34581 4.06323 4.86231 3.8603C4.86231 3.8603 4.86231 3.8603 4.8637 3.8603L4.8986 3.84911C5.40533 3.65597 5.96371 3.55801 6.56394 3.55801C7.26053 3.55801 7.88313 3.66577 8.41778 3.87989C8.9538 4.09402 9.41306 4.39212 9.78298 4.76577C10.1529 5.13945 10.4363 5.5845 10.6233 6.08695C10.7853 6.52077 10.876 6.98541 10.8969 7.46963C10.8844 7.49204 10.5829 8.00704 10.1753 8.73063C9.48288 8.08123 7.83146 6.93782 7.40571 6.7405C6.76916 6.44659 6.13819 6.28704 5.52818 6.26886C4.92094 6.24927 4.33046 6.35845 3.77487 6.59077C3.25 6.8105 2.7684 7.13518 2.33706 7.54804C2.35102 7.00363 2.45153 6.49141 2.64277 6.02536H2.64417ZM3.46637 12.7472C3.25 13.2748 3.13833 13.8459 3.12437 14.4435C2.75165 14.0488 2.4599 13.6149 2.26726 13.1503C2.05927 12.6479 1.95597 12.1272 1.96295 11.6024C1.96993 11.079 2.08579 10.5556 2.30914 10.0462C2.30914 10.0462 2.30914 10.0462 2.30914 10.0448L2.33287 9.99859C2.59252 9.47654 2.87729 9.04691 3.29746 8.62563C3.79023 8.13163 4.30673 7.76636 4.83579 7.53963C5.36625 7.3115 5.90091 7.19673 6.42578 7.19813C6.95061 7.19954 7.46294 7.31709 7.9515 7.53682C8.49173 7.77895 9.24972 8.35695 10.005 9.03573C9.84162 9.32823 9.66714 9.6445 9.49122 9.96918C9.21205 9.94541 8.79467 9.916 8.42616 9.91041C7.80356 9.90059 6.79846 10.035 6.13679 10.2785C5.47932 10.522 4.92094 10.8579 4.47703 11.275C4.03452 11.692 3.69391 12.1874 3.46497 12.7458L3.46637 12.7472ZM7.0246 18.4559C6.5221 18.2487 6.08236 17.952 5.71801 17.577C5.35368 17.2019 5.01726 16.6785 4.8651 16.2306C4.71294 15.7828 4.56218 15.1208 4.56218 14.5246C4.56218 13.8262 4.66967 13.202 4.88325 12.666C5.09683 12.1286 5.39416 11.6682 5.76687 11.2973C6.13959 10.9265 6.5835 10.6424 7.08465 10.4548C7.58159 10.2687 8.37028 10.1651 8.9566 10.1903C9.10319 10.1959 9.24275 10.2043 9.36143 10.2113C8.8784 11.1126 8.40103 12.0503 8.133 12.7108C7.62628 13.9578 6.73846 16.7232 8.54199 18.7623C8.00036 18.7484 7.48808 18.6476 7.0232 18.4559H7.0246ZM14.1313 18.8337C13.6302 19.0436 13.1109 19.1458 12.5874 19.1388C12.3431 19.136 10.1696 18.9303 8.9566 16.3174C8.14975 14.5778 8.76814 12.694 9.58056 10.9894L9.61688 10.918H11.8476C11.6689 11.2875 10.7769 13.2552 11.1664 14.7527C11.627 16.5259 12.9434 17.3348 13.5074 17.5924C14.0713 17.8499 14.6967 17.98 15.3667 17.98C15.3835 17.98 15.4002 17.9772 15.4184 17.9772C15.0261 18.3495 14.5948 18.6406 14.1327 18.8337H14.1313ZM19.461 14.0026C19.274 14.505 18.9906 14.95 18.6207 15.3237C18.2508 15.6974 17.7915 15.9955 17.2554 16.2096C16.6566 16.414 16.0549 16.5315 15.4016 16.5315C14.7874 16.5315 14.2151 16.4294 13.7 16.2278C13.1975 16.0305 10.7951 14.7541 12.0291 11.1616C13.0509 13.2343 14.6701 14.046 16.0885 14.0908C17.49 14.1355 18.8119 13.7325 19.7346 12.5373C19.7207 13.0509 19.6313 13.5435 19.461 14.0012V14.0026ZM18.5327 11.3897C17.8431 11.9691 16.5603 12.8606 14.987 12.5289C14.3896 12.403 13.4543 12.1594 12.6307 10.5318L12.4464 10.1567C13.4459 10.1399 15.1322 10.0658 15.7297 9.91041C16.3983 9.73686 16.9623 9.45695 17.4062 9.07627C17.9171 8.63686 18.3066 8.12882 18.562 7.56341C18.8189 6.998 18.9487 6.37104 18.9487 5.69927C18.9487 5.67827 18.9459 5.65727 18.9459 5.63768C21.1836 7.57882 19.7067 10.4016 18.5327 11.3883V11.3897Z" fill="#CD9B4B"/>
</svg>
